# xmcd
#
# Track frame offsets:
# 225
# 17944
# 36408
# 56162
# 71733
# 88066
# 105391
# 122018
# 140221
# 158339
# 173439
# 191200
# 210274
# 230386
# 248408
# 270798
# 293878
# 315292
#
# Disc length: 4478 seconds
#
#
# Revision: 0
# Processed by: cddbd v1.5.2PL0 Copyright (c) Steve Scherf et al.
# Submitted via: FreeRIP 2.945 
#
DISCID=f1117b12
DTITLE=Elkie Brooks - Elkie Brooks, Pearl's Singer
DYEAR=1900
DGENRE=Folk
TTITLE0=Pearl's Singer
TTITLE1=Sail On
TTITLE2=Stairway to heaven
TTITLE3=You Ain't Leavin'
TTITLE4=Keep it a Secret
TTITLE5=When the Hero Walks Alone
TTITLE6=Only Love will set you free
TTITLE7=What's a matter Baby
TTITLE8=Can't wait al Nightl
TTITLE9=Kiss me for the last Time
TTITLE10=Love is over
TTITLE11=Foolish Games
TTITLE12=I Can Dream, Can't I ?
TTITLE13=The Last Teardrop
TTITLE14=From The Heart
TTITLE15=Don't want to Cry No more
TTITLE16=Break Hte Chain
TTITLE17=All or Nothing
EXTD=
EXTT0=
EXTT1=
EXTT2=
EXTT3=
EXTT4=
EXTT5=
EXTT6=
EXTT7=
EXTT8=
EXTT9=
EXTT10=
EXTT11=
EXTT12=
EXTT13=
EXTT14=
EXTT15=
EXTT16=
EXTT17=
PLAYORDER=
